<?xml version="1.0" encoding="UTF-8" standalone="no"?>
<!-- Created with Inkscape (http://www.inkscape.org/) -->

<svg
   xmlns:dc="http://purl.org/dc/elements/1.1/"
   xmlns:cc="http://creativecommons.org/ns#"
   xmlns:rdf="http://www.w3.org/1999/02/22-rdf-syntax-ns#"
   xmlns:svg="http://www.w3.org/2000/svg"
   xmlns="http://www.w3.org/2000/svg"
   xmlns:sodipodi="http://sodipodi.sourceforge.net/DTD/sodipodi-0.dtd"
   xmlns:inkscape="http://www.inkscape.org/namespaces/inkscape"
   width="25.23455"
   height="24.937464"
   id="svg2"
   version="1.1"
   inkscape:version="0.91pre2 r13516"
   viewBox="0 0 25.23455 24.937464"
   sodipodi:docname="historized-attribute.svg">
  <defs
     id="defs4" />
  <sodipodi:namedview
     id="base"
     pagecolor="#ffffff"
     bordercolor="#666666"
     borderopacity="1.0"
     inkscape:pageopacity="0.0"
     inkscape:pageshadow="2"
     inkscape:zoom="1.979899"
     inkscape:cx="51.588497"
     inkscape:cy="-111.28493"
     inkscape:document-units="px"
     inkscape:current-layer="layer1"
     showgrid="false"
     inkscape:window-width="1920"
     inkscape:window-height="1018"
     inkscape:window-x="-8"
     inkscape:window-y="-8"
     inkscape:window-maximized="1"
     showguides="true"
     inkscape:guide-bbox="true"
     fit-margin-top="0"
     fit-margin-left="0"
     fit-margin-right="0"
     fit-margin-bottom="0" />
  <metadata
     id="metadata7">
    <rdf:RDF>
      <cc:Work
         rdf:about="">
        <dc:format>image/svg+xml</dc:format>
        <dc:type
           rdf:resource="http://purl.org/dc/dcmitype/StillImage" />
        <dc:title></dc:title>
      </cc:Work>
    </rdf:RDF>
  </metadata>
  <g
     inkscape:label="Layer 1"
     inkscape:groupmode="layer"
     id="layer1"
     transform="translate(544.05495,-844.84975)">
    <ellipse
       ry="11.586426"
       rx="11.734969"
       cy="857.31848"
       cx="-531.43768"
       id="ellipse8611"
       style="fill:none;fill-opacity:1;stroke:#fe9191;stroke-width:1.76461172;stroke-miterlimit:4;stroke-dasharray:none;stroke-opacity:1"
       d="m -519.70271,857.31848 a 11.734969,11.586426 0 0 1 -11.73497,11.58643 11.734969,11.586426 0 0 1 -11.73497,-11.58643 11.734969,11.586426 0 0 1 11.73497,-11.58642 11.734969,11.586426 0 0 1 11.73497,11.58642 z" />
    <ellipse
       style="fill:none;fill-opacity:1;stroke:#fe9191;stroke-width:1.5;stroke-miterlimit:4;stroke-dasharray:none;stroke-opacity:1"
       id="ellipse8613"
       cx="-531.39301"
       cy="857.422"
       rx="7.0846114"
       ry="6.9949327"
       d="m -524.30839,857.422 a 7.0846114,6.9949327 0 0 1 -7.08462,6.99493 7.0846114,6.9949327 0 0 1 -7.08461,-6.99493 7.0846114,6.9949327 0 0 1 7.08461,-6.99494 7.0846114,6.9949327 0 0 1 7.08462,6.99494 z" />
  </g>
</svg>
